<svg id="icons" enable-background="new 0 0 64 64" height="512" viewBox="0 0 64 64" width="512" xmlns="http://www.w3.org/2000/svg"><g><g><path d="m59 14h-54c-2.2 0-4 1.8-4 4v28c0 2.2 1.8 4 4 4h54c2.2 0 4-1.8 4-4v-28c0-2.2-1.8-4-4-4z" fill="#e6e9ed"/></g><g><path d="m19 29.99c1.1 0 2 .89 2 2 0 1.1-.9 2-2 2-1.11 0-2-.9-2-2 0-1.11.89-2 2-2z" fill="#aab2bd"/></g><g><path d="m26.48 26.99h-7.48-7.48c-.96 1.43-1.52 3.149-1.52 5 0 .359.02.72.07 1.069 3.85.521 6.81 3.74 6.92 7.7.64.15 1.319.23 2.01.23s1.37-.08 2.01-.23c.11-3.96 3.07-7.18 6.92-7.7.05-.349.07-.709.07-1.069 0-1.85-.56-3.57-1.52-5zm-7.48 7c-1.11 0-2-.9-2-2 0-1.11.89-2 2-2s2 .89 2 2c0 1.1-.89 2-2 2z" fill="#545c66"/></g><g><path d="m19 40.99c4.6 0 8.41-3.46 8.93-7.931.05-.349.07-.709.07-1.069 0-1.851-.56-3.57-1.52-5-1.62-2.41-4.37-4-7.48-4-3.12 0-5.87 1.59-7.48 4-.96 1.43-1.52 3.149-1.52 5 0 .359.02.72.07 1.069.439 3.801 3.26 6.87 6.92 7.7.64.151 1.32.231 2.01.231zm12-9c0 6.63-5.38 12-12 12-6.63 0-12-5.37-12-12s5.37-12 12-12c6.62 0 12 5.37 12 12z" fill="#656d78"/></g><g><path d="m36 22h21v3h-21z" fill="#ccd1d9"/></g></g><g><g><path d="m59 51h-54c-2.757 0-5-2.243-5-5v-28c0-2.757 2.243-5 5-5h54c2.757 0 5 2.243 5 5v28c0 2.757-2.243 5-5 5zm-54-36c-1.654 0-3 1.346-3 3v28c0 1.654 1.346 3 3 3h54c1.654 0 3-1.346 3-3v-28c0-1.654-1.346-3-3-3z"/></g><g><path d="m57.001 34.014h-21.001c-.553 0-1-.447-1-1s.447-1 1-1h21.001c.553 0 1 .447 1 1s-.447 1-1 1z"/></g><g><path d="m57.001 37.014h-21.001c-.553 0-1-.447-1-1s.447-1 1-1h21.001c.553 0 1 .447 1 1s-.447 1-1 1z"/></g><g><path d="m57.001 40.014h-21.001c-.553 0-1-.447-1-1s.447-1 1-1h21.001c.553 0 1 .447 1 1s-.447 1-1 1z"/></g><g><path d="m45.99 43.014h-9.99c-.553 0-1-.447-1-1s.447-1 1-1h9.99c.553 0 1 .447 1 1s-.447 1-1 1z"/></g><g><path d="m57.001 26.001h-21.001c-.553 0-1-.447-1-1v-3c0-.553.447-1 1-1h21.001c.553 0 1 .447 1 1v3c0 .553-.447 1-1 1zm-20.001-2h19.001v-1h-19.001z"/></g><g><path d="m36.03 30.001c-.553 0-1.005-.447-1.005-1s.442-1 .994-1h.011c.552 0 1 .447 1 1s-.448 1-1 1z"/></g><g><path d="m39.03 30.001c-.553 0-1.005-.447-1.005-1s.442-1 .994-1h.011c.552 0 1 .447 1 1s-.448 1-1 1z"/></g><g><path d="m42.03 30.001c-.553 0-1.005-.447-1.005-1s.442-1 .994-1h.011c.552 0 1 .447 1 1s-.448 1-1 1z"/></g><g><path d="m45.03 30.001c-.553 0-1.005-.447-1.005-1s.442-1 .994-1h.011c.552 0 1 .447 1 1s-.448 1-1 1z"/></g><g><path d="m48.03 30.001c-.553 0-1.005-.447-1.005-1s.442-1 .994-1h.011c.552 0 1 .447 1 1s-.448 1-1 1z"/></g><g><path d="m51.03 30.001c-.553 0-1.005-.447-1.005-1s.442-1 .994-1h.011c.552 0 1 .447 1 1s-.448 1-1 1z"/></g><g><path d="m54.03 30.001c-.553 0-1.005-.447-1.005-1s.442-1 .994-1h.011c.552 0 1 .447 1 1s-.448 1-1 1z"/></g><g><path d="m57.031 30.001c-.553 0-1.005-.447-1.005-1s.442-1 .994-1h.011c.552 0 1 .447 1 1s-.448 1-1 1z"/></g><g><g><path d="m18.996 44.987c-7.168 0-13-5.832-13-13s5.832-13 13-13 13 5.832 13 13-5.832 13-13 13zm0-24c-6.065 0-11 4.935-11 11s4.935 11 11 11 11-4.935 11-11-4.934-11-11-11z"/></g><g><path d="m18.996 41.987c-5.514 0-10-4.486-10-10s4.486-10 10-10 10 4.486 10 10-4.486 10-10 10zm0-18c-4.411 0-8 3.589-8 8s3.589 8 8 8 8-3.589 8-8-3.589-8-8-8z"/></g><g><path d="m18.996 34.987c-1.654 0-3-1.346-3-3s1.346-3 3-3 3 1.346 3 3-1.346 3-3 3zm0-4c-.552 0-1 .448-1 1s.448 1 1 1 1-.448 1-1-.448-1-1-1z"/></g><g><path d="m26.48 27.988h-14.968c-.553 0-1-.447-1-1s.447-1 1-1h14.968c.553 0 1 .447 1 1s-.447 1-1 1z"/></g><g><path d="m21.002 41.764c-.01 0-.019 0-.028 0-.552-.016-.987-.476-.973-1.027.122-4.44 3.401-8.086 7.798-8.669.551-.074 1.051.312 1.123.859s-.313 1.051-.859 1.123c-3.418.453-5.968 3.288-6.062 6.741-.016.543-.46.973-.999.973z"/></g><g><path d="m16.99 41.764c-.539 0-.983-.43-.999-.973-.094-3.453-2.644-6.288-6.062-6.741-.547-.072-.932-.575-.859-1.123s.572-.934 1.123-.859c4.396.583 7.676 4.229 7.798 8.669.015.552-.421 1.012-.973 1.027-.009 0-.018 0-.028 0z"/></g></g></g></svg>